<svg xmlns="http://www.w3.org/2000/svg" viewBox="0 0 1200 630" role="img" aria-label="Adi Cybersecurity and DevOps">
  <rect width="1200" height="630" fill="#0d1117"/>
  <path d="M0 0h1200v630H0z" fill="#0d1117"/>
  <g opacity=".18" stroke="#e6edf3">
    <path d="M0 90h1200M0 180h1200M0 270h1200M0 360h1200M0 450h1200M0 540h1200"/>
    <path d="M120 0v630M240 0v630M360 0v630M480 0v630M600 0v630M720 0v630M840 0v630M960 0v630M1080 0v630"/>
  </g>
  <rect x="84" y="88" width="1032" height="454" rx="28" fill="#141b24" stroke="#283241" stroke-width="2"/>
  <text x="132" y="210" fill="#69b6f0" font-family="Inter, Arial, sans-serif" font-size="34" font-weight="700">ADI</text>
  <text x="132" y="306" fill="#e6edf3" font-family="Inter, Arial, sans-serif" font-size="76" font-weight="800">Cybersecurity &amp; DevOps</text>
  <text x="132" y="386" fill="#a7b2c1" font-family="Inter, Arial, sans-serif" font-size="34">Practical notes on cloud security, infrastructure, and production systems.</text>
  <circle cx="1010" cy="192" r="54" fill="#55d6be"/>
  <path d="M982 194h56M1010 166v56" stroke="#0d1117" stroke-width="14" stroke-linecap="round"/>
</svg>
